<?xml version="1.0" encoding="utf-8"?>
<svg viewBox="122.634 117.058 208 208" xmlns="http://www.w3.org/2000/svg">
  <path fill="#FFF" style="stroke-width: 4px;" d="M 320.158 217.107 C 320.158 241.919 331.077 271.019 290.774 285.178 C 268.973 292.837 264.809 320.922 231.057 320.922 C 197.553 320.922 154.705 315.434 160.653 282.008 C 166.601 248.581 130.582 242.112 130.582 217.092 C 130.582 184.02 157.103 130.327 180.81 137.539 C 204.517 144.752 221.375 120.922 245.276 120.922 C 276.779 120.922 270.121 154.771 289.826 160.07 C 309.532 165.371 320.158 190.408 320.158 217.107 Z" stroke="#111"/>
  <circle fill="#FF8000" style="stroke-width: 4px;" cx="241.529" cy="224.255" r="42" stroke="#7F8C8D"/>
  <path fill="#FFBE1A" d="M 257.42 190.781 C 259.677 193.375 242.196 195.77 228.457 207.72 C 214.717 219.67 209.922 236.649 207.665 234.054 C 205.409 231.46 206.545 210.273 220.285 198.324 C 234.025 186.375 255.163 188.186 257.42 190.781 Z"/>
</svg>